<svg width="74" height="57" viewBox="0 0 74 57" fill="none" xmlns="http://www.w3.org/2000/svg">
<path d="M34.1956 40.2994C34.1956 49.5573 26.9584 57 17.3692 57C7.23716 57 0 48.8312 0 38.121C0 26.5032 8.32274 12.344 17.912 0H34.1956C27.8631 8.71338 23.5208 16.5191 20.6259 23.9618C28.5868 25.414 34.1956 32.3121 34.1956 40.2994ZM74 40.2994C74 49.5573 66.7628 57 57.1736 57C47.0416 57 39.8044 48.8312 39.8044 38.121C39.8044 26.5032 48.1271 12.344 57.7164 0H74C67.6675 8.71338 63.3252 16.5191 60.4303 23.9618C68.3912 25.414 74 32.3121 74 40.2994Z" fill="#617FDB" fill-opacity="0.24"/>
</svg>
